<?xml version="1.0" standalone="no"?>
<!DOCTYPE svg PUBLIC "-//W3C//DTD SVG 20010904//EN"
 "http://www.w3.org/TR/2001/REC-SVG-20010904/DTD/svg10.dtd">
<svg version="1.0" xmlns="http://www.w3.org/2000/svg"
 width="300.000000pt" height="300.000000pt" viewBox="0 0 300.000000 300.000000"
 preserveAspectRatio="xMidYMid meet">
<metadata>
Created by potrace 1.10, written by Peter Selinger 2001-2011
</metadata>
<g transform="translate(0.000000,300.000000) scale(0.100000,-0.100000)"
fill="#000000" stroke="none">
<path d="M1295 2255 c-100 -15 -250 -56 -334 -91 -300 -121 -592 -351 -779
-612 -38 -53 -44 -68 -36 -87 15 -39 168 -216 272 -317 223 -213 498 -362 791
-429 129 -30 369 -37 501 -14 269 45 522 157 745 330 162 126 405 396 405 449
0 24 -108 166 -199 260 -79 83 -222 200 -319 264 -104 68 -301 162 -412 197
-194 60 -445 80 -635 50z m288 -156 c261 -40 472 -243 523 -504 60 -310 -139
-629 -451 -721 -78 -23 -218 -23 -305 0 -198 54 -369 214 -434 410 -111 330
89 706 424 800 97 27 145 30 243 15z m-614 -100 c-276 -297 -277 -734 -2
-1039 l44 -50 -38 16 c-120 51 -247 127 -364 222 -76 61 -243 229 -294 296
l-27 36 28 37 c155 204 374 382 599 489 49 24 91 42 92 40 2 -1 -15 -23 -38
-47z m1133 0 c208 -104 410 -264 553 -439 69 -84 71 -74 -43 -202 -161 -183
-363 -334 -567 -423 l-59 -27 45 49 c218 234 271 565 135 847 -37 76 -124 199
-157 219 -10 6 -19 15 -19 19 0 10 32 -3 112 -43z"/>
<path d="M1415 1837 c-95 -32 -163 -90 -201 -172 -26 -58 -28 -82 -26 -352 2
-188 3 -204 22 -223 27 -27 56 -25 85 5 22 21 25 33 25 95 l0 70 43 -21 c59
-30 159 -37 229 -14 85 26 147 79 188 159 31 61 35 78 35 145 -1 57 -6 89 -23
127 -29 64 -102 136 -166 165 -61 26 -157 34 -211 16z m185 -151 c126 -83 114
-258 -23 -328 -87 -44 -204 -3 -248 89 -46 95 -8 199 92 251 55 29 124 24 179
-12z"/>
</g>
</svg>
