 <svg  version="1.0" xmlns="http://www.w3.org/2000/svg"  width="300.000000pt" height="300.000000pt" viewBox="0 0 300.000000 300.000000"  preserveAspectRatio="xMidYMid meet">  <g transform="translate(0.000000,300.000000) scale(0.100000,-0.100000)" fill="#ffffff" stroke="none"> <path d="M1295 2255 c-90 -14 -243 -54 -323 -85 -288 -110 -603 -357 -790 -618 -38 -53 -44 -68 -36 -87 15 -39 168 -216 272 -317 228 -217 511 -369 812 -434 133 -29 420 -27 559 4 320 72 596 228 845 478 106 106 226 258 226 286 0 26 -94 150 -193 254 -89 95 -228 210 -336 279 -98 63 -296 157 -401 190 -194 60 -445 80 -635 50z m288 -156 c261 -40 472 -243 523 -504 60 -310 -139 -629 -451 -721 -78 -23 -218 -23 -305 0 -198 54 -369 214 -434 410 -111 330 89 706 424 800 97 27 145 30 243 15z m-614 -100 c-276 -297 -277 -734 -2 -1039 l44 -50 -38 16 c-120 51 -247 127 -364 222 -76 61 -243 229 -294 296 l-27 36 28 37 c155 204 374 382 599 489 49 24 91 42 92 40 2 -1 -15 -23 -38 -47z m1133 0 c208 -104 410 -264 553 -439 69 -84 71 -74 -43 -202 -95 -108 -212 -212 -317 -283 -85 -57 -233 -138 -275 -150 -23 -7 -21 -3 15 36 214 233 266 563 131 843 -37 76 -124 199 -157 219 -10 6 -19 15 -19 19 0 10 32 -3 112 -43z"/> <path d="M1425 1841 c-128 -34 -230 -153 -236 -276 -1 -27 -2 -141 -1 -252 2 -188 3 -204 22 -223 27 -27 56 -25 85 5 22 21 25 33 25 95 l0 70 43 -21 c59 -30 159 -37 229 -14 85 26 147 79 188 159 31 61 35 78 35 145 -1 57 -6 89 -23 127 -29 64 -102 136 -166 165 -53 23 -152 33 -201 20z m175 -155 c126 -83 114 -258 -23 -328 -87 -44 -204 -3 -248 89 -46 95 -8 199 92 251 55 29 124 24 179 -12z"/> </g> </svg> 